<svg width="375" height="812" viewBox="0 0 375 812" fill="none" xmlns="http://www.w3.org/2000/svg">
<rect width="375" height="812" fill="white"/>
<path d="M191.667 411H183.333V402.667H191.667V411ZM200 394.333H175V419.333H200V394.333ZM216.667 374.75V352.667H204.167V363.5L187.5 348.5L145.833 386H158.333L187.5 359.708L216.667 386H229.167L216.667 374.75Z" fill="#900000"/>
<path d="M134.408 457.296C134.408 456.176 134.536 455.08 134.792 454.008C135.064 452.92 135.44 451.896 135.92 450.936C136.4 449.96 136.968 449.072 137.624 448.272C138.296 447.456 139.024 446.752 139.808 446.16C140.608 445.568 141.456 445.112 142.352 444.792C143.248 444.456 144.168 444.288 145.112 444.288C146.216 444.288 147.072 444.52 147.68 444.984C148.304 445.448 148.616 446.096 148.616 446.928C148.616 447.248 148.568 447.576 148.472 447.912C148.392 448.248 148.264 448.584 148.088 448.92C147.928 449.24 147.736 449.552 147.512 449.856C147.288 450.16 147.04 450.424 146.768 450.648C146.352 450.584 145.992 450.4 145.688 450.096C145.384 449.776 145.192 449.408 145.112 448.992C145.672 448.528 146.112 448.048 146.432 447.552C146.768 447.04 146.936 446.576 146.936 446.16C146.936 445.456 146.496 445.104 145.616 445.104C145.248 445.104 144.864 445.184 144.464 445.344C144.08 445.488 143.688 445.696 143.288 445.968C142.888 446.24 142.496 446.568 142.112 446.952C141.744 447.336 141.4 447.76 141.08 448.224C138.856 451.424 137.744 454.696 137.744 458.04C137.744 459.224 137.928 460.176 138.296 460.896C138.664 461.616 139.152 462.04 139.76 462.168C140.448 462.008 141.32 461.568 142.376 460.848C143.432 460.128 144.584 459.192 145.832 458.04C145.992 458.2 146.088 458.368 146.12 458.544C145.656 459.152 145.176 459.736 144.68 460.296C144.184 460.856 143.688 461.368 143.192 461.832C142.712 462.296 142.232 462.704 141.752 463.056C141.288 463.408 140.856 463.68 140.456 463.872C138.472 463.84 136.968 463.272 135.944 462.168C134.92 461.064 134.408 459.44 134.408 457.296ZM156.092 452.304C156.252 452.304 156.436 452.336 156.644 452.4C156.868 452.448 157.068 452.52 157.244 452.616C157.42 452.696 157.564 452.784 157.676 452.88C157.804 452.976 157.868 453.064 157.868 453.144C157.548 453.816 157.252 454.496 156.98 455.184C156.708 455.856 156.476 456.504 156.284 457.128C156.092 457.752 155.94 458.336 155.828 458.88C155.732 459.424 155.684 459.896 155.684 460.296C155.684 460.744 155.732 461.12 155.828 461.424C155.924 461.712 156.084 461.92 156.308 462.048C156.116 462.176 155.868 462.28 155.564 462.36C155.26 462.44 154.988 462.48 154.748 462.48C153.884 462.48 153.452 461.888 153.452 460.704C153.452 459.792 153.756 458.544 154.364 456.96C154.044 457.696 153.676 458.392 153.26 459.048C152.844 459.688 152.42 460.256 151.988 460.752C151.556 461.248 151.116 461.656 150.668 461.976C150.236 462.28 149.836 462.464 149.468 462.528C148.876 462.496 148.396 462.216 148.028 461.688C147.66 461.144 147.476 460.456 147.476 459.624C147.476 458.728 147.668 457.784 148.052 456.792C148.436 455.8 148.924 454.88 149.516 454.032C150.124 453.184 150.78 452.48 151.484 451.92C152.188 451.344 152.868 451.04 153.524 451.008C153.684 451.056 153.86 451.152 154.052 451.296C154.26 451.44 154.452 451.608 154.628 451.8C154.82 451.992 154.98 452.192 155.108 452.4C155.236 452.592 155.308 452.76 155.324 452.904C154.684 453 154.02 453.312 153.332 453.84C152.66 454.368 152.044 455.008 151.484 455.76C150.94 456.496 150.492 457.288 150.14 458.136C149.788 458.984 149.612 459.776 149.612 460.512C149.612 460.816 149.724 461.008 149.948 461.088C150.412 460.992 150.948 460.6 151.556 459.912C152.164 459.208 152.9 458.128 153.764 456.672C153.924 456.384 154.1 456.064 154.292 455.712C154.5 455.36 154.708 454.992 154.916 454.608C155.124 454.224 155.324 453.84 155.516 453.456C155.724 453.056 155.916 452.672 156.092 452.304ZM158.51 461.52C158.59 461.056 158.726 460.448 158.918 459.696C159.126 458.928 159.366 458.12 159.638 457.272C159.91 456.408 160.198 455.544 160.502 454.68C160.806 453.816 161.102 453.04 161.39 452.352C161.598 451.856 161.782 451.472 161.942 451.2C162.102 450.912 162.278 450.672 162.47 450.48C162.694 450.512 162.926 450.568 163.166 450.648C163.406 450.728 163.638 450.824 163.862 450.936C164.086 451.048 164.286 451.168 164.462 451.296C164.638 451.408 164.774 451.52 164.87 451.632C164.438 452.144 164.054 452.728 163.718 453.384C163.398 454.04 163.07 454.88 162.734 455.904C163.598 455.136 164.358 454.4 165.014 453.696C165.686 452.992 166.31 452.208 166.886 451.344C166.982 451.264 167.15 451.224 167.39 451.224C167.614 451.224 167.83 451.264 168.038 451.344C168.246 451.408 168.39 451.504 168.47 451.632C168.182 452.4 168.038 453.16 168.038 453.912C168.038 454.616 168.142 455.144 168.35 455.496C168.334 455.592 168.222 455.776 168.014 456.048C167.822 456.32 167.606 456.576 167.366 456.816C166.934 456.592 166.55 456.288 166.214 455.904C165.878 455.504 165.63 455.072 165.47 454.608C164.718 455.136 164.078 455.656 163.55 456.168C163.022 456.664 162.566 457.224 162.182 457.848C161.814 458.456 161.494 459.16 161.222 459.96C160.966 460.76 160.718 461.712 160.478 462.816C160.334 462.8 160.158 462.744 159.95 462.648C159.758 462.568 159.558 462.464 159.35 462.336C159.158 462.208 158.982 462.072 158.822 461.928C158.662 461.784 158.558 461.648 158.51 461.52ZM177.358 452.064C177.294 453.056 177.118 453.912 176.83 454.632C176.542 455.336 176.126 455.96 175.582 456.504C175.054 457.032 174.406 457.512 173.638 457.944C172.87 458.376 171.974 458.792 170.95 459.192C170.95 459.288 170.942 459.392 170.926 459.504C170.926 459.6 170.926 459.704 170.926 459.816C170.926 460.024 170.942 460.24 170.974 460.464C171.006 460.688 171.062 460.896 171.142 461.088C171.222 461.28 171.334 461.44 171.478 461.568C171.622 461.68 171.806 461.736 172.03 461.736C172.462 461.736 172.886 461.64 173.302 461.448C173.718 461.256 174.11 461.024 174.478 460.752C174.862 460.464 175.214 460.16 175.534 459.84C175.87 459.504 176.166 459.2 176.422 458.928C176.582 459.072 176.718 459.208 176.83 459.336C176.11 460.296 175.318 461.096 174.454 461.736C173.606 462.36 172.798 462.76 172.03 462.936C170.926 462.808 170.062 462.408 169.438 461.736C168.83 461.048 168.526 460.224 168.526 459.264C168.526 458.608 168.614 457.944 168.79 457.272C168.982 456.584 169.238 455.928 169.558 455.304C169.894 454.664 170.278 454.064 170.71 453.504C171.158 452.944 171.63 452.456 172.126 452.04C172.638 451.624 173.158 451.296 173.686 451.056C174.23 450.816 174.766 450.696 175.294 450.696C176.03 450.792 176.718 451.248 177.358 452.064ZM175.702 452.856C175.27 452.92 174.822 453.096 174.358 453.384C173.894 453.672 173.454 454.056 173.038 454.536C172.638 455.016 172.27 455.576 171.934 456.216C171.598 456.856 171.334 457.544 171.142 458.28C172.422 457.64 173.486 456.856 174.334 455.928C175.182 454.984 175.638 453.96 175.702 452.856ZM187.061 452.064C186.997 453.056 186.821 453.912 186.533 454.632C186.245 455.336 185.829 455.96 185.285 456.504C184.757 457.032 184.109 457.512 183.341 457.944C182.573 458.376 181.677 458.792 180.653 459.192C180.653 459.288 180.645 459.392 180.629 459.504C180.629 459.6 180.629 459.704 180.629 459.816C180.629 460.024 180.645 460.24 180.677 460.464C180.709 460.688 180.765 460.896 180.845 461.088C180.925 461.28 181.037 461.44 181.181 461.568C181.325 461.68 181.509 461.736 181.733 461.736C182.165 461.736 182.589 461.64 183.005 461.448C183.421 461.256 183.813 461.024 184.181 460.752C184.565 460.464 184.917 460.16 185.237 459.84C185.573 459.504 185.869 459.2 186.125 458.928C186.285 459.072 186.421 459.208 186.533 459.336C185.813 460.296 185.021 461.096 184.157 461.736C183.309 462.36 182.501 462.76 181.733 462.936C180.629 462.808 179.765 462.408 179.141 461.736C178.533 461.048 178.229 460.224 178.229 459.264C178.229 458.608 178.317 457.944 178.493 457.272C178.685 456.584 178.941 455.928 179.261 455.304C179.597 454.664 179.981 454.064 180.413 453.504C180.861 452.944 181.333 452.456 181.829 452.04C182.341 451.624 182.861 451.296 183.389 451.056C183.933 450.816 184.469 450.696 184.997 450.696C185.733 450.792 186.421 451.248 187.061 452.064ZM185.405 452.856C184.973 452.92 184.525 453.096 184.061 453.384C183.597 453.672 183.157 454.056 182.741 454.536C182.341 455.016 181.973 455.576 181.637 456.216C181.301 456.856 181.037 457.544 180.845 458.28C182.125 457.64 183.189 456.856 184.037 455.928C184.885 454.984 185.341 453.96 185.405 452.856ZM187.596 461.52C187.676 461.056 187.812 460.448 188.004 459.696C188.212 458.928 188.452 458.12 188.724 457.272C188.996 456.408 189.284 455.544 189.588 454.68C189.892 453.816 190.188 453.04 190.476 452.352C190.684 451.856 190.868 451.472 191.028 451.2C191.188 450.912 191.364 450.672 191.556 450.48C191.78 450.512 192.012 450.568 192.252 450.648C192.492 450.728 192.724 450.824 192.948 450.936C193.172 451.048 193.372 451.168 193.548 451.296C193.724 451.408 193.86 451.52 193.956 451.632C193.524 452.144 193.14 452.728 192.804 453.384C192.484 454.04 192.156 454.88 191.82 455.904C192.684 455.136 193.444 454.4 194.1 453.696C194.772 452.992 195.396 452.208 195.972 451.344C196.068 451.264 196.236 451.224 196.476 451.224C196.7 451.224 196.916 451.264 197.124 451.344C197.332 451.408 197.476 451.504 197.556 451.632C197.268 452.4 197.124 453.16 197.124 453.912C197.124 454.616 197.228 455.144 197.436 455.496C197.42 455.592 197.308 455.776 197.1 456.048C196.908 456.32 196.692 456.576 196.452 456.816C196.02 456.592 195.636 456.288 195.3 455.904C194.964 455.504 194.716 455.072 194.556 454.608C193.804 455.136 193.164 455.656 192.636 456.168C192.108 456.664 191.652 457.224 191.268 457.848C190.9 458.456 190.58 459.16 190.308 459.96C190.052 460.76 189.804 461.712 189.564 462.816C189.42 462.8 189.244 462.744 189.036 462.648C188.844 462.568 188.644 462.464 188.436 462.336C188.244 462.208 188.068 462.072 187.908 461.928C187.748 461.784 187.644 461.648 187.596 461.52Z" fill="#900000"/>
<path d="M196 457V438.12H196.96V457H196ZM197.92 457V438.12H200.8V457H197.92ZM203.68 457V438.12H205.6V457H203.68ZM198.912 459.784H199.712L202.816 465.288V459.784H203.744V459.88C203.68 459.923 203.648 459.976 203.648 460.04C203.627 460.083 203.616 460.179 203.616 460.328V467.208H202.976L199.68 461.384V467.208H198.912V459.784ZM206.562 457V438.12H207.523V457H206.562ZM208.483 457V438.12H210.403V457H208.483ZM212.323 457V438.12H213.283V457H212.323ZM212.099 467.336C211.288 467.336 210.648 467.091 210.179 466.6C209.688 466.109 209.443 465.416 209.443 464.52C209.443 463.923 209.56 463.4 209.795 462.952C210.008 462.525 210.307 462.205 210.691 461.992C211.053 461.757 211.469 461.64 211.939 461.64C212.6 461.64 213.133 461.853 213.539 462.28C213.944 462.728 214.147 463.379 214.147 464.232C214.147 464.317 214.147 464.445 214.147 464.616H210.275C210.296 465.277 210.477 465.779 210.819 466.12C211.16 466.461 211.597 466.632 212.131 466.632C212.707 466.632 213.176 466.429 213.539 466.024L214.019 466.504C213.549 467.059 212.909 467.336 212.099 467.336ZM213.283 463.944C213.283 463.432 213.155 463.027 212.899 462.728C212.643 462.429 212.301 462.28 211.875 462.28C211.491 462.28 211.149 462.419 210.851 462.696C210.552 462.973 210.371 463.389 210.307 463.944H213.283ZM217.125 457V438.12H218.085V457H217.125ZM219.045 457V438.12H222.885V457H219.045ZM224.805 457V438.12H225.765V457H224.805ZM222.405 467.336C221.488 467.336 220.72 467.048 220.101 466.472L220.581 465.672L220.645 465.544L220.741 465.608C220.741 465.629 220.741 465.661 220.741 465.704C220.762 465.768 220.784 465.821 220.805 465.864C220.848 465.928 220.89 465.992 220.933 466.056C221.125 466.227 221.338 466.365 221.573 466.472C221.808 466.557 222.096 466.6 222.437 466.6C222.864 466.6 223.205 466.525 223.461 466.376C223.696 466.227 223.813 466.013 223.813 465.736C223.813 465.501 223.717 465.309 223.525 465.16C223.333 465.011 222.97 464.861 222.437 464.712C221.072 464.307 220.389 463.741 220.389 463.016C220.389 462.589 220.57 462.259 220.933 462.024C221.274 461.768 221.765 461.64 222.405 461.64C222.896 461.64 223.312 461.715 223.653 461.864C223.994 461.992 224.304 462.205 224.581 462.504L224.069 463.08L224.005 463.176L223.941 463.112C223.941 463.027 223.92 462.963 223.877 462.92C223.856 462.856 223.802 462.792 223.717 462.728C223.525 462.579 223.322 462.472 223.109 462.408C222.874 462.323 222.65 462.28 222.437 462.28C222.096 462.28 221.808 462.344 221.573 462.472C221.36 462.579 221.253 462.739 221.253 462.952C221.253 463.165 221.37 463.347 221.605 463.496C221.818 463.667 222.213 463.837 222.789 464.008C223.472 464.221 223.952 464.445 224.229 464.68C224.528 464.915 224.677 465.235 224.677 465.64C224.677 466.131 224.485 466.536 224.101 466.856C223.717 467.176 223.152 467.336 222.405 467.336ZM227.688 457V438.12H228.648V457H227.688ZM230.568 457V438.12H234.408V457H230.568ZM235.368 457V438.12H236.328V457H235.368ZM235.272 466.696C234.76 467.101 234.184 467.304 233.544 467.304C232.946 467.304 232.52 467.123 232.264 466.76C232.008 466.376 231.88 465.779 231.88 464.968C231.88 464.819 231.89 464.584 231.911 464.264L232.04 462.472H230.824V461.768H232.072L232.168 460.328L233.096 460.168H233.224V460.232C233.181 460.296 233.149 460.36 233.128 460.424C233.085 460.488 233.064 460.573 233.064 460.68L232.936 461.768H234.728V462.472H232.872L232.776 464.328C232.754 464.648 232.744 464.851 232.744 464.936C232.744 465.576 232.818 466.013 232.968 466.248C233.117 466.461 233.352 466.568 233.672 466.568C233.906 466.568 234.13 466.525 234.344 466.44C234.536 466.355 234.76 466.216 235.016 466.024L235.272 466.696Z" fill="#900000"/>
</svg>
